<?xml version="1.0" encoding="utf-8"?>
<!-- Generator: Adobe Illustrator 27.5.0, SVG Export Plug-In . SVG Version: 6.00 Build 0)  -->
<svg version="1.1" id="Layer_1" xmlns="http://www.w3.org/2000/svg" xmlns:xlink="http://www.w3.org/1999/xlink" x="0px" y="0px"
	 viewBox="0 0 364.677 243.867" style="enable-background:new 0 0 364.677 243.867;" xml:space="preserve">
<g>
	<g>
		<g>
			<path style="fill:#665C5B;" d="M359.329,219.177c0.488-6.447-5.952-11.484-10.619-15.164c-8.25-6.5-34.53-26.846-39.018-17.699
				c-6.538,13.324,1.979,30.498,21.304,43.816c2.151,1.48,7.363,3.775,7.703,0.811c0.419-0.58-1.278-4.074-1.42-4.65
				c-0.102-0.41,8.469,6.65,11.791,5.307c5.229-2.121,0.357-9.699,0.822-9.416C353.799,224.55,358.958,224.052,359.329,219.177z"/>
			<path style="fill:#665C5B;" d="M359.329,150.691c0.488,6.447-5.952,11.486-10.619,15.164c-8.25,6.502-34.53,26.848-39.018,17.701
				c-6.538-13.324,1.979-30.499,21.304-43.817c2.151-1.48,7.363-3.776,7.703-0.812c0.419,0.58-1.278,4.074-1.42,4.65
				c-0.102,0.411,8.469-6.65,11.791-5.306c5.229,2.12,0.357,9.698,0.822,9.416C353.799,145.319,358.958,145.817,359.329,150.691z"/>
		</g>
		<path style="fill:#564C4C;" d="M143.063,217.53c0,0,176.027,14.125,171.767-43.375c-2.315-31.249-57.944-25.592-89.66-104.881
			L143.063,217.53z"/>
	</g>
	<g>
		<g>
			<path style="fill:#665C5B;" d="M177.688,219.698c0.287-32.09,4.187-91.732,49.42-131.336c3.352-2.935,28.496,39.21,29.809,73.176
				c1.313,33.98-15.838,40.934-15.838,40.934s29.475-4.723,35.844,3.104c0,0,0.928,2.402-0.285,3.561
				c0.018-0.002,15.394-0.125,13.017,7.602c0,0,10.392-0.65,11.383,6.594c1.112,8.172-20.356,10.939-25.419,11.781
				c-16.077,2.67-32.338,2.998-48.599,2.813C214.928,237.786,177.52,238.575,177.688,219.698z"/>
			<path style="fill:#423838;" d="M258.276,222.525c-2.008,0-4.089-0.057-6.244-0.184c-0.275-0.016-0.486-0.253-0.47-0.528
				c0.017-0.275,0.258-0.494,0.528-0.47c22.563,1.322,37.218-5,37.362-5.063c0.255-0.114,0.549,0.002,0.659,0.256
				c0.111,0.252-0.003,0.547-0.255,0.658C289.724,217.254,277.526,222.525,258.276,222.525z"/>
			<path style="fill:#423838;" d="M252.133,211.162c-3.609,0-7.357-0.114-11.052-0.405c-0.275-0.021-0.481-0.262-0.459-0.537
				c0.021-0.275,0.287-0.475,0.537-0.459c17.03,1.343,35.229-1.097,35.41-1.122c0.264-0.047,0.525,0.153,0.563,0.428
				c0.038,0.273-0.154,0.525-0.428,0.563C276.56,209.648,265.267,211.162,252.133,211.162z"/>
		</g>
		<g>
			<path style="fill:#665C5B;" d="M128.714,219.698c-0.287-32.09-4.187-91.732-49.42-131.336
				c-3.352-2.935-28.496,39.21-29.809,73.176c-1.313,33.98,15.838,40.934,15.838,40.934s-29.475-4.723-35.844,3.104
				c0,0-0.928,2.402,0.285,3.561c-0.019-0.002-15.395-0.125-13.018,7.602c0,0-10.392-0.65-11.383,6.594
				c-1.112,8.172,20.357,10.939,25.419,11.781c16.077,2.67,32.338,2.998,48.599,2.813
				C91.475,237.786,128.883,238.575,128.714,219.698z"/>
			<path style="fill:#423838;" d="M48.126,222.525c-19.253,0-31.448-5.271-31.581-5.331c-0.253-0.111-0.367-0.406-0.256-0.658
				c0.111-0.253,0.407-0.367,0.659-0.256c0.146,0.063,14.8,6.381,37.363,5.063c0.277-0.021,0.512,0.194,0.528,0.47
				c0.016,0.275-0.194,0.513-0.47,0.528C52.217,222.469,50.132,222.525,48.126,222.525z"/>
			<path style="fill:#423838;" d="M54.27,211.162c-13.136,0-24.428-1.514-24.571-1.533c-0.274-0.037-0.465-0.289-0.428-0.563
				c0.038-0.274,0.289-0.473,0.563-0.428c0.182,0.024,18.378,2.463,35.41,1.122c0.268-0.018,0.516,0.184,0.537,0.459
				c0.023,0.275-0.184,0.516-0.459,0.537C61.628,211.048,57.878,211.162,54.27,211.162z"/>
		</g>
	</g>
	<g>
		<path style="fill:#7A706E;" d="M240.42,137.587c0,56.642-39.048,88.212-87.219,88.212c-48.169,0-87.219-31.57-87.219-88.212
			c0-56.645,39.05-131.688,87.219-131.688C201.372,5.9,240.42,80.943,240.42,137.587z"/>
		<g>
			<g>
				<path style="fill:#211C19;" d="M126.806,44.184c0,4.271-3.461,7.732-7.733,7.732c-4.268,0-7.732-3.462-7.732-7.732
					s3.464-7.732,7.732-7.732C123.345,36.452,126.806,39.914,126.806,44.184z"/>
				<path style="fill:#FFFFFF;" d="M118.522,41.774c0,1.33-1.078,2.41-2.411,2.41c-1.329,0-2.409-1.08-2.409-2.41
					c0-1.331,1.08-2.411,2.409-2.411C117.444,39.363,118.522,40.443,118.522,41.774z"/>
				<circle style="fill:#FFFFFF;" cx="114.756" cy="46.845" r="1.054"/>
			</g>
			<g>
				<path style="fill:#211C19;" d="M192.74,44.184c0,4.271-3.462,7.732-7.731,7.732c-4.271,0-7.734-3.462-7.734-7.732
					s3.463-7.732,7.734-7.732C189.278,36.452,192.74,39.914,192.74,44.184z"/>
				<path style="fill:#FFFFFF;" d="M184.458,41.774c0,1.33-1.08,2.41-2.41,2.41c-1.332,0-2.41-1.08-2.41-2.41
					c0-1.331,1.078-2.411,2.41-2.411C183.378,39.363,184.458,40.443,184.458,41.774z"/>
				<path style="fill:#FFFFFF;" d="M181.746,46.845c0,0.582-0.474,1.054-1.054,1.054c-0.584,0-1.055-0.472-1.055-1.054
					c0-0.583,0.471-1.054,1.055-1.054C181.272,45.792,181.746,46.262,181.746,46.845z"/>
			</g>
		</g>
		<g>
			<g>
				<path style="fill:#AA9F9B;" d="M181.236,55.617c-4.653-7.334-15.968-14.305-29.197-14.305c-13.236,0-24.555,6.978-29.202,14.314
					c-4.282,5.229-7.042,12.825-7.042,19.218c0,10.964,8.114,17.074,18.123,17.074c9.473,0,17.236-5.48,18.043-15.361
					c0.025,0,0.052,0.001,0.078,0.001c0.027,0,0.055-0.001,0.082-0.001c0.807,9.881,8.57,15.361,18.043,15.361
					c10.009,0,18.122-6.11,18.122-17.074C188.286,68.448,185.523,60.846,181.236,55.617z"/>
				<g>
					<path style="fill:#3A3330;" d="M149.467,69.476c0,0,0.67-8.207-8.711-8.047c0,0-3.797-0.16-3.797,1.932
						c0,2.092,2.457,5.955,4.69,4.346c2.233-1.609,0.671-3.541,0.671-3.541S147.681,63.522,149.467,69.476z"/>
					<path style="fill:#3A3330;" d="M154.614,69.476c0,0-0.67-8.207,8.711-8.047c0,0,3.797-0.16,3.797,1.932
						c0,2.092-2.457,5.955-4.69,4.346c-2.233-1.609-0.67-3.541-0.67-3.541S156.401,63.522,154.614,69.476z"/>
				</g>
			</g>
			<g>
				<g>
					<path style="fill:#3F3734;" d="M117.439,110.985c-0.226,0-0.419-0.172-0.443-0.402c-1.187-11.586,2.156-18.902,5.171-23.002
						c3.281-4.463,6.81-6.146,6.958-6.217c0.223-0.104,0.488-0.008,0.593,0.217c0.104,0.223,0.009,0.488-0.215,0.594
						c-0.138,0.064-13.825,6.764-11.618,28.318c0.025,0.244-0.153,0.465-0.398,0.488
						C117.471,110.983,117.455,110.985,117.439,110.985z"/>
					<path style="fill:#3F3734;" d="M108.32,101.647c-0.021,0-0.042-0.002-0.063-0.004c-0.244-0.033-0.414-0.26-0.38-0.504
						c1.521-10.889,6.512-16.482,10.43-19.26c4.264-3.021,8.12-3.441,8.281-3.457c0.242-0.025,0.465,0.15,0.49,0.398
						c0.025,0.244-0.154,0.463-0.398,0.488c-0.15,0.016-15.101,1.795-17.918,21.953C108.729,101.487,108.539,101.647,108.32,101.647
						z"/>
					<path style="fill:#3F3734;" d="M100.949,94.723c-0.016,0-0.031,0-0.047-0.002c-0.245-0.025-0.424-0.246-0.398-0.49
						c1.175-11.279,7.189-16.5,12.028-18.893c5.231-2.588,10.108-2.506,10.315-2.504c0.246,0.006,0.441,0.211,0.436,0.457
						c-0.005,0.244-0.205,0.438-0.446,0.438c-0.047,0.002-0.083-0.004-0.161-0.002c-1.94,0-19.197,0.57-21.283,20.596
						C101.369,94.553,101.175,94.723,100.949,94.723z"/>
					<path style="fill:#3F3734;" d="M134.354,111.424c-0.199,0-0.381-0.133-0.433-0.336c-2.405-9.355-1.273-16.662,0.101-21.143
						c1.495-4.873,3.541-7.496,3.627-7.605c0.153-0.193,0.435-0.227,0.628-0.074c0.193,0.152,0.227,0.434,0.073,0.627
						c-0.081,0.104-8.056,10.5-3.563,27.973c0.061,0.238-0.083,0.482-0.322,0.545C134.428,111.42,134.39,111.424,134.354,111.424z"
						/>
					<path style="fill:#3F3734;" d="M108.319,71.495c-0.148,0-0.293-0.072-0.378-0.209c-0.132-0.207-0.069-0.484,0.14-0.615
						c12.841-8.109,23.928-0.063,24.04,0.02c0.197,0.146,0.238,0.426,0.092,0.625c-0.148,0.197-0.427,0.24-0.624,0.092
						c-0.106-0.078-10.717-7.758-23.031,0.02C108.484,71.473,108.401,71.495,108.319,71.495z"/>
					<path style="fill:#3F3734;" d="M110.105,84.225c-0.091,0-0.184-0.027-0.263-0.084c-0.199-0.146-0.243-0.426-0.099-0.625
						c7.892-10.82,22.046-8.465,22.188-8.441c0.242,0.043,0.404,0.275,0.361,0.518s-0.27,0.412-0.517,0.363
						c-0.139-0.023-13.754-2.277-21.31,8.088C110.379,84.163,110.244,84.225,110.105,84.225z"/>
					<path style="fill:#3F3734;" d="M126.259,98.305c-0.229,0-0.424-0.174-0.444-0.408c-1.189-13.889,11.856-20.484,11.988-20.549
						c0.22-0.107,0.489-0.018,0.597,0.203c0.109,0.221,0.019,0.488-0.202,0.598c-0.126,0.063-12.629,6.4-11.493,19.672
						c0.021,0.246-0.161,0.463-0.406,0.482C126.285,98.305,126.271,98.305,126.259,98.305z"/>
					<path style="fill:#3F3734;" d="M142.045,97.245c-0.186,0-0.359-0.117-0.423-0.303c-4.098-12.055,1.012-16.453,1.232-16.635
						c0.189-0.158,0.473-0.131,0.629,0.061c0.156,0.189,0.131,0.471-0.058,0.627l0,0c-0.05,0.041-4.839,4.238-0.957,15.658
						c0.08,0.234-0.045,0.488-0.278,0.568C142.141,97.237,142.093,97.245,142.045,97.245z"/>
				</g>
				<g>
					<path style="fill:#3F3734;" d="M186.641,110.985c-0.016,0-0.03-0.002-0.046-0.004c-0.245-0.024-0.424-0.244-0.398-0.488
						c2.211-21.59-11.48-28.254-11.619-28.318c-0.223-0.105-0.319-0.371-0.215-0.594c0.104-0.225,0.372-0.32,0.594-0.217
						c0.144,0.068,14.403,7.006,12.128,29.219C187.061,110.813,186.867,110.985,186.641,110.985z"/>
					<path style="fill:#3F3734;" d="M195.761,101.647c-0.219,0-0.41-0.16-0.441-0.385c-1.475-10.545-6.265-15.949-10.023-18.625
						c-4.074-2.902-7.857-3.322-7.895-3.328c-0.245-0.025-0.424-0.244-0.398-0.488c0.025-0.248,0.244-0.424,0.489-0.398
						c0.157,0.016,15.794,1.84,18.712,22.717c0.034,0.244-0.136,0.471-0.38,0.504C195.803,101.645,195.782,101.647,195.761,101.647z
						"/>
					<path style="fill:#3F3734;" d="M203.132,94.723c-0.227,0-0.42-0.17-0.443-0.4c-0.91-8.73-4.791-14.848-11.536-18.184
						c-5.037-2.492-9.865-2.414-9.897-2.41c-0.236-0.002-0.451-0.191-0.458-0.438c-0.005-0.246,0.191-0.451,0.437-0.457
						c0.216,0.002,20.094-0.199,22.343,21.396c0.026,0.244-0.152,0.465-0.397,0.49C203.163,94.723,203.147,94.723,203.132,94.723z"
						/>
					<path style="fill:#3F3734;" d="M169.727,111.424c-0.037,0-0.074-0.004-0.111-0.014c-0.238-0.063-0.383-0.307-0.321-0.545
						c2.348-9.133,1.254-16.25-0.076-20.611c-1.443-4.73-3.468-7.334-3.488-7.361c-0.152-0.193-0.119-0.475,0.074-0.627
						c0.193-0.152,0.474-0.119,0.627,0.074c0.084,0.105,8.337,10.822,3.729,28.748C170.107,111.291,169.927,111.424,169.727,111.424
						z"/>
					<path style="fill:#3F3734;" d="M195.762,71.495c-0.082,0-0.165-0.021-0.238-0.068c-12.314-7.777-22.926-0.098-23.031-0.02
						c-0.197,0.148-0.478,0.105-0.625-0.092c-0.146-0.199-0.105-0.479,0.092-0.625c0.112-0.082,11.201-8.129,24.041-0.02
						c0.209,0.131,0.271,0.408,0.14,0.615C196.054,71.422,195.909,71.495,195.762,71.495z"/>
					<path style="fill:#3F3734;" d="M193.975,84.225c-0.138,0-0.272-0.063-0.361-0.182c-7.556-10.365-21.173-8.109-21.309-8.088
						c-0.248,0.049-0.475-0.121-0.518-0.363c-0.042-0.242,0.12-0.475,0.362-0.518c0.143-0.025,14.297-2.381,22.188,8.441
						c0.144,0.199,0.102,0.479-0.098,0.625C194.159,84.198,194.066,84.225,193.975,84.225z"/>
					<path style="fill:#3F3734;" d="M177.822,98.305c-0.014,0-0.026,0-0.039-0.002c-0.245-0.02-0.428-0.236-0.407-0.482
						c1.138-13.287-11.365-19.609-11.491-19.672c-0.223-0.109-0.313-0.377-0.204-0.598c0.109-0.221,0.381-0.311,0.598-0.203
						c0.133,0.064,13.177,6.66,11.988,20.549C178.246,98.131,178.052,98.305,177.822,98.305z"/>
					<path style="fill:#3F3734;" d="M162.036,97.245c-0.048,0-0.097-0.008-0.145-0.023c-0.233-0.08-0.358-0.334-0.279-0.568
						c3.902-11.477-0.905-15.615-0.954-15.656c-0.19-0.156-0.217-0.438-0.061-0.629c0.157-0.191,0.441-0.217,0.629-0.061
						c0.221,0.182,5.329,4.58,1.232,16.635C162.396,97.127,162.222,97.245,162.036,97.245z"/>
				</g>
			</g>
		</g>
		<path style="fill:#A39693;" d="M214.167,180.434c0,31.706-27.295,45.366-60.966,45.366s-60.966-13.66-60.966-45.366
			c0-31.706,27.295-69.449,60.966-69.449S214.167,148.728,214.167,180.434z"/>
	</g>
</g>
</svg>
